<?xml version="1.0" encoding="UTF-8"?>
<svg id="Layer_2" data-name="Layer 2" xmlns="http://www.w3.org/2000/svg" viewBox="0 0 961.14 412.69">
  <defs>
    <style>
      .cls-1 {
        fill: #f7f6f7;
        stroke-width: 0px;
      }
    </style>
  </defs>
  <g id="Layer_1-2" data-name="Layer 1">
    <g>
      <path class="cls-1" d="M38.44,48.06h-11.3v26.7H9.69V6.98h17.46v26.7h11.3V6.98h17.46v67.78h-17.46v-26.7Z"/>
      <path class="cls-1" d="M80.56,52.68v2.57c0,4.21,1.64,6.37,9.34,6.37,4.21,0,10.89-1.95,10.89-1.95l1.44.72s.92,6.37,1.33,11.91c0,.1-7.29,3.7-17.66,3.7-15.3,0-22.8-8.21-22.8-26.39v-3.7c0-16.33,8.63-25.78,21.36-25.78h1.75c12.43,0,19,7.39,19,21.67v1.74c0,3.6-.92,9.14-.92,9.14h-23.72ZM80.56,43.44h8.21v-7.5c0-3.29-1.44-4.52-3.49-4.52-1.85,0-4.72,1.34-4.72,6.57v5.44Z"/>
      <path class="cls-1" d="M110.87,2.87h17.46v54.02c0,3.39,1.54,4.72,4.11,4.72,1.44,0,2.88-.31,2.88-.31l1.74,1.64v10.89s-4.93,2.16-11.09,2.16c-10.89,0-15.1-5.65-15.1-17.15V2.87Z"/>
      <path class="cls-1" d="M186.36,57.61c0,2.16.62,3.29,2.88,3.7l2.16.31.72,1.64c-.51,2.88-2.05,9.14-2.05,9.14,0,0-2.98,3.59-9.14,3.59-4.93,0-8.32-2.26-10.17-5.34h-.82c-2.46,2.67-6.27,5.34-11.81,5.34-10.58,0-17.97-7.7-17.97-25.88v-3.08c0-19.92,7.39-26.91,20.13-26.91,2.98,0,6.16.72,8.63,1.54V2.87h17.46v54.74ZM157.6,48.37c0,11.4,2.98,14.27,6.98,14.27,1.64,0,3.18-.31,4.31-.62v-27.11c-1.23-.21-2.87-.41-4.62-.41-4.62,0-6.68,2.98-6.68,12.74v1.13Z"/>
      <path class="cls-1" d="M205.47,0c5.75,0,9.96,2.77,9.96,8.52s-4.21,8.52-9.96,8.52-9.96-2.77-9.96-8.52,4.21-8.52,9.96-8.52ZM196.74,74.76V21.36h17.46v53.4h-17.46Z"/>
      <path class="cls-1" d="M270.79,21.36v13.66l-1.64,1.03s-1.54-.31-3.39-.31c-.72,0-2.05.1-2.05.1.2,1.03.31,1.95.31,2.98,0,12.32-7.91,18.28-21.26,18.28h-1.64c-1.54,0-3.08-.1-4.52-.31-.31.92-.51,1.95-.51,3.08,0,1.95,1.23,2.88,3.18,2.88h11.4c12.43,0,18.49,6.98,18.49,15.2v2.88c0,7.5-5.85,15.71-22.08,15.71h-6.68c-13.35,0-20.54-4.72-20.54-11.81v-1.13c0-4.01,2.46-7.5,6.06-9.24v-.21c-2.77-1.74-4.21-4.52-4.21-8.32s2.77-8.11,6.06-12.02c-4.83-2.98-7.91-7.91-7.91-14.99,0-10.99,7.91-18.69,21.26-18.69h1.64c7.09,0,12.63,2.26,16.33,5.96,2.05-2.57,4.93-4.73,9.34-4.73h2.36ZM246.55,36.25c0-3.59-2.05-4.83-4.62-4.83s-4.62,1.23-4.62,4.83v4.62c0,3.59,2.05,4.93,4.62,4.93s4.62-1.34,4.62-4.93v-4.62ZM237.31,76.1v6.06c0,3.39,2.05,5.13,7.19,5.13s7.19-2.26,7.19-5.34v-1.03c0-3.08-2.05-4.83-5.44-4.83h-8.93Z"/>
      <path class="cls-1" d="M286.62,74.76l-13.25-53.4h16.84l5.14,24.24,1.85,11.71h1.44l1.85-11.71,5.13-24.24h16.95l-13.35,53.4h-22.59Z"/>
      <path class="cls-1" d="M335.92,0c5.75,0,9.96,2.77,9.96,8.52s-4.21,8.52-9.96,8.52-9.96-2.77-9.96-8.52,4.21-8.52,9.96-8.52ZM327.19,74.76V21.36h17.46v53.4h-17.46Z"/>
      <path class="cls-1" d="M351.85,61.11l1.54-.82s7.7,1.33,13.45,1.33c6.68,0,8.01-1.13,8.01-3.49,0-1.33-.82-2.36-3.18-2.77l-8.73-1.54c-6.88-1.23-12.32-5.44-12.53-13.45-.41-13.25,5.65-20.23,23.41-20.23,5.86,0,12.63,1.13,12.63,1.23,0,5.75-1.23,13.35-1.23,13.35l-1.54.82s-5.75-1.03-9.76-1.03c-6.16,0-7.09,1.54-7.09,3.39,0,1.34.92,2.16,2.57,2.47l7.09,1.23c10.58,1.85,14.79,6.78,14.79,15.51,0,12.32-5.44,18.9-22.9,18.9-9.34,0-15.09-1.44-15.09-1.33-1.03-5.34-1.44-13.56-1.44-13.56Z"/>
      <path class="cls-1" d="M435.45,52.68v2.57c0,4.21,1.64,6.37,9.34,6.37,4.21,0,10.89-1.95,10.89-1.95l1.44.72s.92,6.37,1.33,11.91c0,.1-7.29,3.7-17.66,3.7-15.3,0-22.8-8.21-22.8-26.39v-3.7c0-16.33,8.63-25.78,21.36-25.78h1.75c12.43,0,19,7.39,19,21.67v1.74c0,3.6-.92,9.14-.92,9.14h-23.72ZM435.45,43.44h8.21v-7.5c0-3.29-1.44-4.52-3.49-4.52-1.85,0-4.72,1.34-4.72,6.57v5.44Z"/>
      <path class="cls-1" d="M465.76,74.76V21.36h10.27l4.72,5.86c2.26-3.49,5.55-7.09,12.63-7.09,1.33,0,2.56.2,2.56.2l-1.23,15.61-2.05,1.02s-1.74-.41-3.8-.41c-2.67,0-4.62.92-5.65,1.64v36.56h-17.46Z"/>
      <path class="cls-1" d="M568.37,57.61c0,2.16.61,3.29,2.87,3.7l2.16.31.72,1.64c-.51,2.88-2.05,9.14-2.05,9.14,0,0-2.98,3.59-9.14,3.59-4.93,0-8.32-2.26-10.17-5.34h-.82c-2.47,2.67-6.27,5.34-11.81,5.34-10.58,0-17.97-7.7-17.97-25.88v-3.08c0-19.92,7.39-26.91,20.13-26.91,2.98,0,6.16.72,8.63,1.54V2.87h17.46v54.74ZM539.61,48.37c0,11.4,2.98,14.27,6.98,14.27,1.64,0,3.18-.31,4.31-.62v-27.11c-1.23-.21-2.87-.41-4.62-.41-4.62,0-6.67,2.98-6.67,12.74v1.13Z"/>
      <path class="cls-1" d="M594.67,52.68v2.57c0,4.21,1.64,6.37,9.35,6.37,4.21,0,10.89-1.95,10.89-1.95l1.43.72s.92,6.37,1.33,11.91c0,.1-7.29,3.7-17.66,3.7-15.3,0-22.8-8.21-22.8-26.39v-3.7c0-16.33,8.63-25.78,21.36-25.78h1.74c12.43,0,19,7.39,19,21.67v1.74c0,3.6-.92,9.14-.92,9.14h-23.72ZM594.67,43.44h8.22v-7.5c0-3.29-1.44-4.52-3.49-4.52-1.85,0-4.72,1.34-4.72,6.57v5.44Z"/>
      <path class="cls-1" d="M624.97,74.76V21.36h10.27l4.72,5.86c2.26-3.49,5.55-7.09,12.63-7.09,1.33,0,2.57.2,2.57.2l-1.23,15.61-2.05,1.02s-1.74-.41-3.8-.41c-2.67,0-4.62.92-5.65,1.64v36.56h-17.46Z"/>
      <path class="cls-1" d="M682.91,61.11l1.54-.82s7.7,1.33,13.46,1.33c6.68,0,8.01-1.13,8.01-3.49,0-1.33-.82-2.36-3.18-2.77l-8.73-1.54c-6.88-1.23-12.32-5.44-12.53-13.45-.41-13.25,5.65-20.23,23.42-20.23,5.85,0,12.63,1.13,12.63,1.23,0,5.75-1.23,13.35-1.23,13.35l-1.54.82s-5.75-1.03-9.76-1.03c-6.16,0-7.09,1.54-7.09,3.39,0,1.34.92,2.16,2.57,2.47l7.08,1.23c10.58,1.85,14.79,6.78,14.79,15.51,0,12.32-5.44,18.9-22.9,18.9-9.35,0-15.09-1.44-15.09-1.33-1.03-5.34-1.44-13.56-1.44-13.56Z"/>
      <path class="cls-1" d="M725.94,21.36h5.96l5.13-12.32h12.33v12.32h11.4v14.38h-11.4v19.51c0,4.21.92,6.37,4.93,6.37,3.39,0,5.24-.51,5.24-.51l1.23.61v12.43s-3.8,1.85-9.96,1.85c-15.61,0-18.9-7.29-18.9-20.54v-19.72h-5.96v-14.38Z"/>
      <path class="cls-1" d="M782.33,20.13c18.38,0,25.16,6.68,25.16,20.54v16.94c0,2.16.61,3.29,2.87,3.7l2.15.31.72,1.64c-.51,2.88-2.05,9.14-2.05,9.14,0,0-2.98,3.59-9.14,3.59-5.24,0-8.73-2.57-10.58-6.06h-.61c-2.87,3.49-6.98,6.06-12.43,6.06-8.73,0-14.07-6.68-14.07-14.99v-2.67c0-9.76,4.83-14.38,13.35-15.4l12.33-1.54v-.51c0-4.21-1.95-6.37-10.58-6.37-4.72,0-10.06.82-10.06.82l-1.54-1.03c0-1.23,1.64-10.78,2.46-13.35,0,.1,5.54-.82,12.02-.82ZM790.04,60.9v-11.09l-4.21,1.64c-2.15.82-4,2.26-4,5.03v1.85c0,2.57,1.54,4.31,4.11,4.31,1.64,0,3.28-.92,4.11-1.75Z"/>
      <path class="cls-1" d="M862.55,57.61c0,2.16.61,3.29,2.87,3.7l2.16.31.72,1.64c-.51,2.88-2.05,9.14-2.05,9.14,0,0-2.98,3.59-9.14,3.59-4.93,0-8.32-2.26-10.17-5.34h-.82c-2.47,2.67-6.27,5.34-11.81,5.34-10.58,0-17.97-7.7-17.97-25.88v-3.08c0-19.92,7.39-26.91,20.13-26.91,2.98,0,6.16.72,8.63,1.54V2.87h17.46v54.74ZM833.79,48.37c0,11.4,2.98,14.27,6.98,14.27,1.64,0,3.18-.31,4.31-.62v-27.11c-1.23-.21-2.87-.41-4.62-.41-4.62,0-6.67,2.98-6.67,12.74v1.13Z"/>
      <path class="cls-1" d="M881.67,0c5.75,0,9.96,2.77,9.96,8.52s-4.21,8.52-9.96,8.52-9.96-2.77-9.96-8.52,4.21-8.52,9.96-8.52ZM872.93,74.76V21.36h17.46v53.4h-17.46Z"/>
      <path class="cls-1" d="M946.98,21.36v13.66l-1.64,1.03s-1.54-.31-3.39-.31c-.72,0-2.05.1-2.05.1.21,1.03.31,1.95.31,2.98,0,12.32-7.91,18.28-21.26,18.28h-1.64c-1.54,0-3.08-.1-4.52-.31-.31.92-.51,1.95-.51,3.08,0,1.95,1.23,2.88,3.18,2.88h11.4c12.43,0,18.48,6.98,18.48,15.2v2.88c0,7.5-5.85,15.71-22.08,15.71h-6.68c-13.35,0-20.54-4.72-20.54-11.81v-1.13c0-4.01,2.46-7.5,6.06-9.24v-.21c-2.77-1.74-4.21-4.52-4.21-8.32s2.77-8.11,6.06-12.02c-4.83-2.98-7.91-7.91-7.91-14.99,0-10.99,7.91-18.69,21.26-18.69h1.64c7.09,0,12.63,2.26,16.33,5.96,2.05-2.57,4.93-4.73,9.35-4.73h2.36ZM922.75,36.25c0-3.59-2.05-4.83-4.62-4.83s-4.62,1.23-4.62,4.83v4.62c0,3.59,2.05,4.93,4.62,4.93s4.62-1.34,4.62-4.93v-4.62ZM913.5,76.1v6.06c0,3.39,2.05,5.13,7.19,5.13s7.19-2.26,7.19-5.34v-1.03c0-3.08-2.05-4.83-5.44-4.83h-8.93Z"/>
      <path class="cls-1" d="M90.05,260.9h-35.38v83.61H0v-212.25h54.67v83.61h35.38v-83.61h54.67v212.25h-54.67v-83.61Z"/>
      <path class="cls-1" d="M226.7,358.99c0,36.02-12.86,53.71-45.99,53.71-19.3,0-36.98-7.07-36.98-7.07l3.86-34.09,5.47-5.15s4.18,1.29,7.72,1.29c7.07,0,11.25-3.21,11.25-13.83v-176.55h54.67v181.7ZM199.37,110.4c18.01,0,31.2,8.68,31.2,26.69s-13.19,26.69-31.2,26.69-31.19-8.68-31.19-26.69,13.18-26.69,31.19-26.69Z"/>
      <path class="cls-1" d="M299.05,275.37v8.04c0,13.19,5.15,19.94,29.27,19.94,13.18,0,34.09-6.11,34.09-6.11l4.5,2.25s2.89,19.94,4.18,37.3c0,.32-22.83,11.58-55.31,11.58-47.91,0-71.39-25.73-71.39-82.65v-11.58c0-51.13,27.01-80.72,66.89-80.72h5.47c38.91,0,59.49,23.15,59.49,67.85v5.47c0,11.25-2.9,28.62-2.9,28.62h-74.29ZM299.05,246.43h25.73v-23.48c0-10.29-4.5-14.15-10.93-14.15-5.79,0-14.79,4.18-14.79,20.58v17.04Z"/>
      <path class="cls-1" d="M393.9,344.52v-167.23h32.16l15.44,18.97c9.97-10.93,22.83-22.83,46.31-22.83,17.69,0,31.19,8.36,38.59,21.55,9.65-10.62,22.51-21.55,45.02-21.55,27.33,0,44.38,18.97,44.38,46.95v124.13h-54.67v-114.81c0-7.07-4.18-11.26-12.86-11.26-6.43,0-12.54,2.9-16.08,4.5v121.56h-54.67v-114.81c0-7.07-4.18-11.26-12.86-11.26-6.43,0-12.54,2.9-16.08,4.5v121.56h-54.67Z"/>
      <path class="cls-1" d="M640.54,267.34v-38.59h80.39v38.59h-80.39Z"/>
      <path class="cls-1" d="M750.51,132.27h54.67v212.25h-54.67v-212.25Z"/>
      <path class="cls-1" d="M835.4,301.1l4.82-2.57s20.9,4.82,40.52,4.82,25.73-8.36,25.73-21.55c0-9.01-4.51-14.15-14.15-18.01l-25.72-10.29c-20.26-8.04-37.31-25.08-37.31-56.92,0-43.41,21.87-68.18,77.18-68.18,20.26,0,41.16,3.54,41.16,3.86-.97,20.9-3.86,41.81-3.86,41.81l-4.82,2.57s-15.76-3.21-29.27-3.21c-19.62,0-25.73,7.39-25.73,19.94,0,9.65,6.43,14.15,11.58,16.4l25.08,10.29c27.33,11.58,40.52,27.66,40.52,58.53,0,44.38-19.94,69.79-75.57,69.79-22.83,0-47.6-4.5-48.88-4.82-1.61-16.72-1.29-42.45-1.29-42.45Z"/>
    </g>
  </g>
</svg>